<?xml version="1.0" encoding="UTF-8"?>
<svg id="Layer_2" data-name="Layer 2" xmlns="http://www.w3.org/2000/svg" viewBox="0 0 1124.48 344.99">
  <g id="Layer_1-2" fill="#000000" data-name="Layer 1">
    <g>
      <g>
        <path class="cls-1" d="M151.97,0l-44.78,97.89h-.5L98.63,0H33.77L0,174.98h44.3l21.29-109.64h.49l7.84,109.64h36.95l49.43-109.64h.49l-21.29,109.64h45.53L218.79,0h-66.82Z"/>
        <path class="cls-1" d="M306.11,54.81c-9.05-5.62-20.07-8.8-35.49-8.8-41.85,0-71.21,32.55-71.21,74.88,0,37.45,27.9,57.52,64.6,57.52,14.19,0,26.67-3.18,38.67-10.53,10.78-6.61,19.09-16.64,23.26-30.1h-44.05c-3.19,6.86-10.29,9.55-17.87,9.55-16.64,0-21.04-11.75-21.29-23.5h86.15c4.66-31.82-2.44-56.04-22.76-69.02ZM288.25,99.36h-42.33c4.64-16.65,15.17-22.52,24.47-22.52,13.21,0,18.35,10.28,17.86,22.52Z"/>
        <path class="cls-1" d="M473.8,50.17h-43.32l-2.93,15.42h-.74c-8.07-13.96-20.55-19.34-35.49-19.34-37.44,0-59.22,38.67-59.22,73.18,0,29.37,20.32,49.43,45.51,49.43,12.48-.24,22.77-5.87,29.87-13.71h.98l-2.45,12.73c-2.44,12.24-8.32,20.07-21.29,20.07-9.54,0-15.91-3.67-17.37-10.77h-43.56c3.18,29.37,30.84,41.36,59.47,41.36,16.64,0,31.57-2.69,42.82-10.28,12.73-8.56,21.05-21.29,25.21-43.07l11.11-56.76-33.58-17.22h36.95l8.03-41.04ZM394.26,137.05c-12.73,0-17.37-10.78-17.37-22.03,0-16.64,8.56-35.98,25.94-35.98,12.73,0,17.37,11.25,17.37,22.27,0,16.65-9.05,35.98-25.94,35.74Z"/>
        <path class="cls-1" d="M587.66,99.36c4.64-23.26-2.69-36.95-14.19-44.55-10.53-6.85-24.23-8.56-37.69-8.56-40.87,0-60.21,18.6-65.1,45.04h43.32c2.44-9.79,8.56-14.93,19.09-14.93,8.56,0,11.74,4.64,11.74,9.79,0,12.24-11.25,14.19-37.19,15.66-30.35,1.71-49.19,13.22-49.19,41.12,0,21.29,14.19,35.24,38.67,35.24,11.25,0,24.22-5.38,33.52-16.89h.49c0,5.38.74,10.77,1.96,13.71h44.29l.25-1.95c-2.44-2.45-2.94-8.08-.74-18.6l10.78-55.06ZM537.49,130.19c-3.18,15.66-11.99,20.32-21.54,20.32-8.31,0-13.71-3.18-13.71-11.5,0-11.5,10.53-13.71,18.85-14.93,7.82-1.22,13.71-2.69,18.6-4.89l-2.2,11.01Z"/>
        <path class="cls-1" d="M688.72,46.25c-17.86,0-30.34,9.3-39.15,20.55h-.74L661.79,0h-45.26l-33.78,174.98h45.53l13.22-68.77c2.69-13.22,11.5-23.5,22.76-23.5,11.99,0,14.68,8.57,12.48,19.58l-14.19,72.69h45.53l12.64-65.6,1.79-9.29c.6-3.06,1.03-5.99,1.29-8.8,2.88-29.33-11.61-45.04-35.06-45.04Z"/>
        <path class="cls-1" d="M846.49,99.36c4.66-23.26-2.69-36.95-14.19-44.55-10.52-6.85-24.22-8.56-37.69-8.56-40.87,0-60.2,18.6-65.09,45.04h43.31c2.45-9.79,8.57-14.93,19.09-14.93,8.57,0,11.75,4.64,11.75,9.79,0,12.24-11.25,14.19-37.2,15.66-30.34,1.71-49.19,13.22-49.19,41.12,0,21.29,14.19,35.24,38.67,35.24,11.26,0,24.23-5.38,33.53-16.89h.49c0,5.38.74,10.77,1.95,13.71h44.3l.25-1.95c-2.45-2.45-2.94-8.08-.74-18.6l10.77-55.06ZM796.32,130.19c-3.18,15.66-11.99,20.32-21.53,20.32-8.32,0-13.71-3.18-13.71-11.5,0-11.5,10.53-13.71,18.84-14.93,7.84-1.22,13.71-2.69,18.6-4.89l-2.2,11.01Z"/>
        <path class="cls-1" d="M942.24,47.48c-15.41,0-28.39,6.85-39.15,23.5h-.73l4.16-20.8h-43.56l-24.23,124.81h45.53l9.3-48.46c6.04-31.18,20.68-42.54,47.68-38.58.34.04.67.1,1.01.15h.99l1.48-7.64,6.11-31.75c-1.48-.74-4.89-1.23-8.57-1.23Z"/>
        <path class="cls-1" d="M1046.98,0l-12.73,65.34h-.73c-7.59-11.99-18.36-19.09-35.25-19.09-25.27,0-43.22,14.39-53.58,34.21-1.28,2.42-2.43,4.92-3.47,7.49-4.61,11.41-6.98,24.09-7.06,36.63-.25,33.27,18.84,54.57,47.23,54.57,15.18,0,28.88-8.8,36.22-19.09h.49l-2.69,14.93h43.32L1092.51,0h-45.53ZM999.75,144.64c-13.71,0-18.11-12.24-18.11-23.98,0-17.87,8.07-41.36,26.92-41.61,13.94,0,18.59,13.22,18.59,25.21,0,17.61-9.29,40.38-27.4,40.38Z"/>
        <path class="cls-1" d="M1090.77,67.8c0-9.76,7.44-16.99,16.85-16.99s16.85,7.23,16.85,16.99-7.44,16.99-16.85,16.99-16.85-7.23-16.85-16.99ZM1121.11,67.8c0-8.08-5.76-14.05-13.48-14.05s-13.48,5.97-13.48,14.05,5.76,14.12,13.48,14.12,13.48-5.97,13.48-14.12ZM1099.97,58.74h8.99c3.72,0,7.09,1.69,7.09,5.34,0,2.04-1.05,3.58-2.95,4.28v.14c1.61.56,2.18,1.62,2.53,3.02.49,2.11.14,4.35.91,4.71v.42h-5.69c-.49-.28-.35-2.46-.7-4.14-.28-1.4-.91-1.9-2.46-1.9h-1.97v6.04h-5.76v-17.91ZM1105.73,66.61h2.39c1.47,0,2.25-.56,2.25-1.76,0-1.12-.63-1.69-2.25-1.69h-2.39v3.44Z"/>
      </g>
      <g>
        <path class="cls-1" d="M54.9,310.92l-35.25-87.96v69.84c0,6.42.61,10.43,1.82,12.03,1.66,2.16,4.28,3.24,7.87,3.24h3.23v2.85H.81v-2.85h3.23c3.86,0,6.59-1.34,8.21-4.01.99-1.64,1.48-5.4,1.48-11.25v-68.3c0-4.62-.45-7.96-1.35-10.02-.63-1.49-1.78-2.74-3.46-3.74s-4.38-1.5-8.11-1.5v-2.85h25.83l33.1,81.79,32.56-81.79h25.83v2.85h-3.16c-3.9,0-6.66,1.34-8.27,4.01-.99,1.64-1.48,5.4-1.48,11.25v68.3c0,6.42.63,10.43,1.88,12.03,1.66,2.16,4.28,3.24,7.87,3.24h3.16v2.85h-38.75v-2.85h3.23c3.9,0,6.64-1.34,8.21-4.01.99-1.64,1.48-5.4,1.48-11.25v-69.84l-35.18,87.96h-2.22Z"/>
        <path class="cls-1" d="M151.02,300.74c-6.32,5.6-10.29,8.84-11.91,9.71-2.42,1.28-5,1.93-7.74,1.93-4.26,0-7.77-1.67-10.53-5.01-2.76-3.34-4.14-7.73-4.14-13.18,0-3.44.67-6.42,2.02-8.94,1.84-3.49,5.03-6.78,9.59-9.87,4.55-3.08,12.12-6.83,22.71-11.25v-2.78c0-7.04-.98-11.87-2.93-14.49s-4.79-3.93-8.51-3.93c-2.83,0-5.07.88-6.73,2.62-1.71,1.75-2.56,3.75-2.56,6.01l.13,4.47c0,2.37-.53,4.19-1.58,5.47-1.05,1.29-2.43,1.93-4.14,1.93s-3.02-.67-4.07-2c-1.05-1.34-1.58-3.16-1.58-5.47,0-4.42,1.97-8.48,5.92-12.18,3.95-3.7,9.49-5.55,16.62-5.55,5.47,0,9.96,1.05,13.46,3.16,2.65,1.59,4.6,4.09,5.85,7.48.81,2.21,1.21,6.73,1.21,13.57v23.97c0,6.73.11,10.86.34,12.37.22,1.52.59,2.53,1.11,3.04s1.11.77,1.78.77c.72,0,1.35-.18,1.88-.54.94-.67,2.76-2.54,5.45-5.63v4.32c-5.02,7.71-9.82,11.56-14.4,11.56-2.2,0-3.95-.87-5.25-2.62-1.3-1.75-1.97-4.73-2.02-8.94ZM151.02,295.73v-26.9c-6.77,3.08-11.15,5.27-13.12,6.55-3.54,2.26-6.08,4.63-7.6,7.09-1.53,2.47-2.29,5.16-2.29,8.09,0,3.7.96,6.77,2.89,9.21,1.93,2.44,4.15,3.66,6.66,3.66,3.41,0,7.89-2.57,13.46-7.71Z"/>
        <path class="cls-1" d="M186.26,201.3v70.23l15.67-16.34c3.32-3.49,5.25-5.7,5.79-6.63.36-.62.54-1.23.54-1.85,0-1.03-.37-1.91-1.11-2.66s-1.96-1.17-3.67-1.27v-2.47h26.77v2.47c-3.68.1-6.74.75-9.18,1.93-2.45,1.18-5.12,3.29-8.04,6.32l-15.81,16.73,15.81,22.89c4.39,6.32,7.35,10.33,8.88,12.03,2.15,2.42,4.04,3.98,5.65,4.7,1.12.51,3.07.77,5.85.77v2.77h-29.94v-2.77c1.7-.05,2.86-.35,3.46-.89.61-.54.91-1.3.91-2.27,0-1.18-.9-3.08-2.69-5.7l-18.9-27.67v23.43c0,4.58.28,7.58.84,9.02.56,1.44,1.36,2.47,2.39,3.08,1.03.62,3.27.95,6.73,1v2.77h-31.35v-2.77c3.14,0,5.49-.44,7.06-1.31.94-.57,1.66-1.44,2.15-2.62.67-1.7,1.01-4.62,1.01-8.79v-64.29c0-8.17-.16-13.17-.47-14.99-.31-1.82-.83-3.08-1.55-3.78-.72-.69-1.66-1.04-2.83-1.04-.94,0-2.35.44-4.24,1.31l-1.14-2.7,18.3-8.63h3.09Z"/>
        <path class="cls-1" d="M248.94,238.22v56.74c0,4.42.28,7.36.84,8.83.56,1.46,1.39,2.56,2.49,3.28,1.1.72,3.11,1.08,6.02,1.08v2.77h-29.94v-2.77c3,0,5.02-.33,6.05-1,1.03-.67,1.85-1.77,2.46-3.31s.91-4.5.91-8.87v-27.21c0-7.66-.2-12.62-.61-14.88-.31-1.64-.81-2.79-1.48-3.43-.67-.64-1.59-.96-2.76-.96-1.26,0-2.78.38-4.57,1.16l-.94-2.78,18.57-8.63h2.96ZM243.36,201.3c1.88,0,3.49.76,4.81,2.27,1.32,1.52,1.98,3.35,1.98,5.51s-.66,4.01-1.98,5.55c-1.32,1.54-2.93,2.31-4.81,2.31s-3.5-.77-4.84-2.31c-1.35-1.54-2.02-3.39-2.02-5.55s.66-4,1.98-5.51c1.32-1.52,2.95-2.27,4.88-2.27Z"/>
        <path class="cls-1" d="M274.69,253.18c7.22-9.97,14.1-14.96,20.65-14.96,3.36,0,6.26.96,8.68,2.89,2.42,1.93,4.35,5.1,5.79,9.52.99,3.08,1.48,7.81,1.48,14.18v30.14c0,4.47.31,7.5.94,9.1.49,1.29,1.29,2.29,2.39,3.01,1.1.72,3.13,1.08,6.09,1.08v2.77h-30.47v-2.77h1.28c2.87,0,4.88-.5,6.02-1.5s1.94-2.48,2.39-4.43c.18-.77.27-3.19.27-7.25v-28.91c0-6.42-.73-11.09-2.19-13.99-1.46-2.9-3.91-4.36-7.37-4.36-5.34,0-10.65,3.34-15.94,10.02v37.23c0,4.78.25,7.74.74,8.87.63,1.49,1.49,2.58,2.59,3.28,1.1.69,3.33,1.04,6.69,1.04v2.77h-30.47v-2.77h1.35c3.14,0,5.26-.91,6.36-2.74,1.1-1.82,1.65-5.31,1.65-10.45v-26.21c0-8.48-.17-13.64-.5-15.49-.34-1.85-.85-3.11-1.55-3.78s-1.63-1-2.79-1c-1.26,0-2.76.38-4.51,1.16l-1.01-2.78,18.57-8.63h2.89v14.96Z"/>
        <path class="cls-1" d="M332.87,285.17c-3.77-2.11-6.66-5.05-8.68-8.83-2.02-3.78-3.03-7.95-3.03-12.53,0-6.99,2.3-13,6.9-18.04,4.6-5.04,10.48-7.55,17.66-7.55,5.88,0,10.97,1.65,15.27,4.93h13.05c1.93,0,3.05.07,3.36.19.31.13.54.35.67.66.27.46.4,1.29.4,2.47,0,1.34-.11,2.26-.34,2.78-.13.26-.37.46-.71.62-.34.15-1.47.23-3.4.23h-8.01c2.51,3.7,3.77,8.43,3.77,14.18,0,6.58-2.2,12.21-6.59,16.88-4.4,4.68-10.29,7.01-17.69,7.01-3.05,0-6.17-.51-9.35-1.54-1.97,1.95-3.31,3.66-4,5.13-.7,1.46-1.04,2.71-1.04,3.74,0,.87.37,1.72,1.11,2.54.74.82,2.19,1.41,4.34,1.77,1.25.21,4.4.39,9.42.54,9.24.26,15.23.62,17.96,1.08,4.17.67,7.5,2.44,9.99,5.32,2.49,2.88,3.73,6.42,3.73,10.64,0,5.81-2.38,11.25-7.13,16.34-7,7.5-16.12,11.25-27.38,11.25-8.66,0-15.97-2.24-21.93-6.71-3.36-2.57-5.05-5.24-5.05-8.02,0-1.23.25-2.47.74-3.7.76-1.9,2.33-4.55,4.71-7.94.31-.46,2.6-3.24,6.86-8.33-2.33-1.59-3.98-3.02-4.95-4.28-.96-1.26-1.45-2.68-1.45-4.28,0-1.8.64-3.91,1.92-6.32,1.28-2.42,4.23-5.83,8.85-10.25ZM332.2,310.92c-2.11,2.62-3.7,5.06-4.78,7.32-1.08,2.26-1.61,4.34-1.61,6.24,0,2.47,1.3,4.62,3.9,6.48,4.48,3.19,10.96,4.78,19.44,4.78s14.03-1.63,17.86-4.9,5.75-6.75,5.75-10.45c0-2.67-1.14-4.57-3.43-5.7-2.33-1.13-6.95-1.8-13.86-2-10.09-.31-17.85-.9-23.28-1.77ZM344.57,241.92c-3.32,0-6.1,1.52-8.34,4.55-2.24,3.03-3.36,7.68-3.36,13.95,0,8.12,1.52,14.42,4.58,18.89,2.33,3.39,5.29,5.09,8.88,5.09s6.21-1.46,8.41-4.39c2.2-2.93,3.3-7.53,3.3-13.8,0-8.17-1.55-14.57-4.64-19.19-2.29-3.39-5.22-5.09-8.81-5.09Z"/>
        <path class="cls-1" d="M417.74,285.17c-3.77-2.11-6.66-5.05-8.68-8.83-2.02-3.78-3.03-7.95-3.03-12.53,0-6.99,2.3-13,6.9-18.04,4.6-5.04,10.48-7.55,17.66-7.55,5.88,0,10.97,1.65,15.27,4.93h13.05c1.93,0,3.05.07,3.36.19.31.13.54.35.67.66.27.46.4,1.29.4,2.47,0,1.34-.11,2.26-.34,2.78-.13.26-.37.46-.71.62-.34.15-1.47.23-3.4.23h-8.01c2.51,3.7,3.77,8.43,3.77,14.18,0,6.58-2.2,12.21-6.59,16.88-4.4,4.68-10.29,7.01-17.69,7.01-3.05,0-6.17-.51-9.35-1.54-1.97,1.95-3.31,3.66-4,5.13-.7,1.46-1.04,2.71-1.04,3.74,0,.87.37,1.72,1.11,2.54.74.82,2.19,1.41,4.34,1.77,1.25.21,4.4.39,9.42.54,9.24.26,15.23.62,17.96,1.08,4.17.67,7.5,2.44,9.99,5.32,2.49,2.88,3.73,6.42,3.73,10.64,0,5.81-2.38,11.25-7.13,16.34-7,7.5-16.12,11.25-27.38,11.25-8.66,0-15.97-2.24-21.93-6.71-3.36-2.57-5.05-5.24-5.05-8.02,0-1.23.25-2.47.74-3.7.76-1.9,2.33-4.55,4.71-7.94.31-.46,2.6-3.24,6.86-8.33-2.33-1.59-3.98-3.02-4.95-4.28-.96-1.26-1.45-2.68-1.45-4.28,0-1.8.64-3.91,1.92-6.32,1.28-2.42,4.23-5.83,8.85-10.25ZM417.07,310.92c-2.11,2.62-3.7,5.06-4.78,7.32-1.08,2.26-1.61,4.34-1.61,6.24,0,2.47,1.3,4.62,3.9,6.48,4.48,3.19,10.96,4.78,19.44,4.78s14.03-1.63,17.86-4.9,5.75-6.75,5.75-10.45c0-2.67-1.14-4.57-3.43-5.7-2.33-1.13-6.95-1.8-13.86-2-10.09-.31-17.85-.9-23.28-1.77ZM429.44,241.92c-3.32,0-6.1,1.52-8.34,4.55-2.24,3.03-3.36,7.68-3.36,13.95,0,8.12,1.52,14.42,4.58,18.89,2.33,3.39,5.29,5.09,8.88,5.09s6.21-1.46,8.41-4.39c2.2-2.93,3.3-7.53,3.3-13.8,0-8.17-1.55-14.57-4.64-19.19-2.29-3.39-5.22-5.09-8.81-5.09Z"/>
        <path class="cls-1" d="M495.83,300.74c-6.32,5.6-10.29,8.84-11.91,9.71-2.42,1.28-5,1.93-7.74,1.93-4.26,0-7.77-1.67-10.53-5.01-2.76-3.34-4.14-7.73-4.14-13.18,0-3.44.67-6.42,2.02-8.94,1.84-3.49,5.03-6.78,9.59-9.87,4.55-3.08,12.12-6.83,22.71-11.25v-2.78c0-7.04-.98-11.87-2.93-14.49s-4.79-3.93-8.51-3.93c-2.83,0-5.07.88-6.73,2.62-1.71,1.75-2.56,3.75-2.56,6.01l.13,4.47c0,2.37-.53,4.19-1.58,5.47-1.05,1.29-2.43,1.93-4.14,1.93s-3.02-.67-4.07-2c-1.05-1.34-1.58-3.16-1.58-5.47,0-4.42,1.97-8.48,5.92-12.18,3.95-3.7,9.49-5.55,16.62-5.55,5.47,0,9.96,1.05,13.46,3.16,2.65,1.59,4.6,4.09,5.85,7.48.81,2.21,1.21,6.73,1.21,13.57v23.97c0,6.73.11,10.86.34,12.37.22,1.52.59,2.53,1.11,3.04s1.11.77,1.78.77c.72,0,1.35-.18,1.88-.54.94-.67,2.76-2.54,5.45-5.63v4.32c-5.02,7.71-9.82,11.56-14.4,11.56-2.2,0-3.95-.87-5.25-2.62-1.3-1.75-1.97-4.73-2.02-8.94ZM495.83,295.73v-26.9c-6.77,3.08-11.15,5.27-13.12,6.55-3.54,2.26-6.08,4.63-7.6,7.09-1.53,2.47-2.29,5.16-2.29,8.09,0,3.7.96,6.77,2.89,9.21,1.93,2.44,4.15,3.66,6.66,3.66,3.41,0,7.89-2.57,13.46-7.71Z"/>
        <path class="cls-1" d="M531.13,253.26c4.48-5.14,7.13-8.09,7.94-8.87,2.02-1.95,4.19-3.47,6.53-4.55s4.64-1.62,6.93-1.62c3.86,0,7.17,1.29,9.96,3.85,2.78,2.57,4.64,6.3,5.58,11.18,4.62-6.17,8.52-10.21,11.71-12.14,3.18-1.93,6.46-2.89,9.82-2.89s6.18.96,8.71,2.89c2.53,1.93,4.54,5.08,6.02,9.44.99,2.98,1.48,7.66,1.48,14.03v30.37c0,4.42.29,7.45.88,9.1.45,1.13,1.28,2.09,2.49,2.89,1.21.8,3.18,1.2,5.92,1.2v2.77h-30.41v-2.77h1.28c2.65,0,4.71-.59,6.19-1.77,1.03-.82,1.77-2.13,2.22-3.93.18-.87.27-3.37.27-7.48v-30.37c0-5.75-.61-9.82-1.82-12.18-1.75-3.29-4.55-4.93-8.41-4.93-2.38,0-4.77.68-7.17,2.04-2.4,1.36-5.3,3.89-8.71,7.59l-.13.85.13,3.31v33.69c0,4.83.24,7.84.71,9.02.47,1.18,1.36,2.17,2.66,2.97,1.3.8,3.52,1.2,6.66,1.2v2.77h-31.15v-2.77c3.41,0,5.75-.46,7.03-1.39,1.28-.93,2.16-2.31,2.66-4.16.22-.87.34-3.42.34-7.63v-30.37c0-5.75-.74-9.89-2.22-12.41-1.97-3.29-4.73-4.93-8.27-4.93-2.42,0-4.82.75-7.2,2.24-3.72,2.26-6.59,4.81-8.61,7.63v37.85c0,4.63.28,7.63.84,9.02s1.39,2.43,2.49,3.12c1.1.69,3.33,1.04,6.69,1.04v2.77h-30.48v-2.77c2.83,0,4.8-.35,5.92-1.04,1.12-.69,1.97-1.8,2.56-3.31s.88-4.46.88-8.83v-26.98c0-7.76-.2-12.77-.61-15.03-.31-1.7-.81-2.86-1.48-3.51-.67-.64-1.59-.96-2.76-.96-1.26,0-2.76.38-4.51,1.16l-1.01-2.78,18.57-8.63h2.89v15.03Z"/>
        <path class="cls-1" d="M621.13,266.9c-.05,10.48,2.17,18.71,6.66,24.67,4.48,5.96,9.75,8.94,15.81,8.94,4.04,0,7.54-1.27,10.53-3.82,2.98-2.54,5.48-6.9,7.5-13.07l2.09,1.54c-.94,7.04-3.68,13.45-8.21,19.23-4.53,5.78-10.2,8.67-17.02,8.67-7.4,0-13.74-3.3-19-9.91-5.27-6.6-7.91-15.48-7.91-26.63,0-12.08,2.7-21.49,8.11-28.25,5.4-6.76,12.19-10.14,20.35-10.14,6.91,0,12.58,2.61,17.02,7.82,4.44,5.22,6.66,12.19,6.66,20.93h-42.58ZM621.13,262.43h28.52c-.22-4.52-.7-7.71-1.41-9.56-1.12-2.88-2.79-5.14-5.01-6.78-2.22-1.64-4.54-2.47-6.96-2.47-3.72,0-7.05,1.66-9.99,4.97-2.94,3.31-4.65,7.93-5.15,13.84Z"/>
        <path class="cls-1" d="M680.72,238.22v15.88c5.16-10.59,10.45-15.88,15.88-15.88,2.47,0,4.51.86,6.12,2.58,1.61,1.72,2.42,3.71,2.42,5.97,0,2-.58,3.7-1.75,5.09-1.17,1.39-2.56,2.08-4.17,2.08s-3.33-.89-5.28-2.66c-1.95-1.77-3.4-2.66-4.34-2.66-.81,0-1.68.51-2.62,1.54-2.02,2.11-4.1,5.58-6.26,10.41v33.84c0,3.91.43,6.86,1.28,8.87.58,1.39,1.61,2.54,3.09,3.47,1.48.92,3.61,1.39,6.39,1.39v2.77h-31.55v-2.77c3.14,0,5.47-.57,7-1.7,1.12-.82,1.91-2.13,2.35-3.93.22-.87.34-3.37.34-7.48v-27.37c0-8.22-.15-13.12-.44-14.69-.29-1.57-.83-2.71-1.62-3.43-.79-.72-1.76-1.08-2.93-1.08-1.39,0-2.96.38-4.71,1.16l-.67-2.78,18.63-8.63h2.83Z"/>
        <path class="cls-1" d="M739.17,238.22v24.05h-2.22c-1.71-7.55-3.89-12.69-6.56-15.42-2.67-2.72-6.07-4.09-10.19-4.09-3.14,0-5.67.95-7.6,2.85-1.93,1.9-2.89,4.01-2.89,6.32,0,2.88.72,5.34,2.15,7.4,1.39,2.11,4.21,4.34,8.48,6.71l9.82,5.47c9.1,5.09,13.66,11.79,13.66,20.12,0,6.42-2.12,11.6-6.36,15.53s-8.98,5.9-14.23,5.9c-3.77,0-8.07-.77-12.92-2.31-1.48-.51-2.69-.77-3.63-.77-1.03,0-1.84.67-2.42,2h-2.22v-25.21h2.22c1.25,7.2,3.65,12.62,7.2,16.27,3.54,3.65,7.51,5.47,11.91,5.47,3.09,0,5.62-1.04,7.57-3.12,1.95-2.08,2.93-4.59,2.93-7.52,0-3.55-1.09-6.53-3.26-8.94-2.18-2.42-6.51-5.47-13.02-9.17s-10.76-7.04-12.78-10.02c-2.02-2.93-3.03-6.63-3.03-11.1,0-5.81,1.74-10.66,5.21-14.57,3.47-3.9,7.97-5.86,13.49-5.86,2.42,0,5.36.59,8.81,1.77,2.29.77,3.81,1.16,4.57,1.16.72,0,1.28-.18,1.68-.54.4-.36.87-1.16,1.41-2.39h2.22Z"/>
        <path class="cls-1" d="M786.97,238.22v15.88c5.16-10.59,10.45-15.88,15.88-15.88,2.47,0,4.51.86,6.12,2.58,1.61,1.72,2.42,3.71,2.42,5.97,0,2-.58,3.7-1.75,5.09-1.17,1.39-2.56,2.08-4.17,2.08s-3.33-.89-5.28-2.66c-1.95-1.77-3.4-2.66-4.34-2.66-.81,0-1.68.51-2.62,1.54-2.02,2.11-4.1,5.58-6.26,10.41v33.84c0,3.91.43,6.86,1.28,8.87.58,1.39,1.61,2.54,3.09,3.47,1.48.92,3.61,1.39,6.39,1.39v2.77h-31.55v-2.77c3.14,0,5.47-.57,7-1.7,1.12-.82,1.91-2.13,2.35-3.93.22-.87.34-3.37.34-7.48v-27.37c0-8.22-.15-13.12-.44-14.69-.29-1.57-.83-2.71-1.62-3.43-.79-.72-1.76-1.08-2.93-1.08-1.39,0-2.96.38-4.71,1.16l-.67-2.78,18.63-8.63h2.83Z"/>
        <path class="cls-1" d="M826.85,238.22v56.74c0,4.42.28,7.36.84,8.83.56,1.46,1.39,2.56,2.49,3.28,1.1.72,3.11,1.08,6.02,1.08v2.77h-29.94v-2.77c3,0,5.02-.33,6.05-1,1.03-.67,1.85-1.77,2.46-3.31s.91-4.5.91-8.87v-27.21c0-7.66-.2-12.62-.61-14.88-.31-1.64-.81-2.79-1.48-3.43-.67-.64-1.59-.96-2.76-.96-1.26,0-2.78.38-4.57,1.16l-.94-2.78,18.57-8.63h2.96ZM821.26,201.3c1.88,0,3.49.76,4.81,2.27,1.32,1.52,1.98,3.35,1.98,5.51s-.66,4.01-1.98,5.55c-1.32,1.54-2.93,2.31-4.81,2.31s-3.5-.77-4.84-2.31c-1.35-1.54-2.02-3.39-2.02-5.55s.66-4,1.98-5.51c1.32-1.52,2.95-2.27,4.88-2.27Z"/>
        <path class="cls-1" d="M874.46,238.22v24.05h-2.22c-1.71-7.55-3.89-12.69-6.56-15.42-2.67-2.72-6.07-4.09-10.19-4.09-3.14,0-5.67.95-7.6,2.85-1.93,1.9-2.89,4.01-2.89,6.32,0,2.88.72,5.34,2.15,7.4,1.39,2.11,4.21,4.34,8.48,6.71l9.82,5.47c9.1,5.09,13.66,11.79,13.66,20.12,0,6.42-2.12,11.6-6.36,15.53s-8.98,5.9-14.23,5.9c-3.77,0-8.07-.77-12.92-2.31-1.48-.51-2.69-.77-3.63-.77-1.03,0-1.84.67-2.42,2h-2.22v-25.21h2.22c1.25,7.2,3.65,12.62,7.2,16.27,3.54,3.65,7.51,5.47,11.91,5.47,3.09,0,5.62-1.04,7.57-3.12,1.95-2.08,2.93-4.59,2.93-7.52,0-3.55-1.09-6.53-3.26-8.94-2.18-2.42-6.51-5.47-13.02-9.17s-10.76-7.04-12.78-10.02c-2.02-2.93-3.03-6.63-3.03-11.1,0-5.81,1.74-10.66,5.21-14.57,3.47-3.9,7.97-5.86,13.49-5.86,2.42,0,5.36.59,8.81,1.77,2.29.77,3.81,1.16,4.57,1.16.72,0,1.28-.18,1.68-.54.4-.36.87-1.16,1.41-2.39h2.22Z"/>
        <path class="cls-1" d="M889.38,266.9c-.05,10.48,2.17,18.71,6.66,24.67,4.48,5.96,9.75,8.94,15.81,8.94,4.04,0,7.54-1.27,10.53-3.82,2.98-2.54,5.48-6.9,7.5-13.07l2.09,1.54c-.94,7.04-3.68,13.45-8.21,19.23-4.53,5.78-10.2,8.67-17.02,8.67-7.4,0-13.74-3.3-19-9.91-5.27-6.6-7.91-15.48-7.91-26.63,0-12.08,2.7-21.49,8.11-28.25,5.4-6.76,12.19-10.14,20.35-10.14,6.91,0,12.58,2.61,17.02,7.82,4.44,5.22,6.66,12.19,6.66,20.93h-42.58ZM889.38,262.43h28.52c-.22-4.52-.7-7.71-1.41-9.56-1.12-2.88-2.79-5.14-5.01-6.78-2.22-1.64-4.54-2.47-6.96-2.47-3.72,0-7.05,1.66-9.99,4.97-2.94,3.31-4.65,7.93-5.15,13.84Z"/>
        <path class="cls-1" d="M1010.18,240.31v42.78c0,8.17.17,13.17.5,14.99.34,1.83.87,3.1,1.61,3.82s1.6,1.08,2.59,1.08c1.39,0,2.96-.44,4.71-1.31l.94,2.7-18.43,8.71h-3.03v-14.95c-5.29,6.58-9.33,10.71-12.11,12.41-2.78,1.7-5.72,2.54-8.81,2.54-3.45,0-6.45-1.14-8.98-3.43-2.53-2.29-4.29-5.23-5.28-8.83-.99-3.6-1.48-8.68-1.48-15.26v-31.53c0-3.34-.31-5.65-.94-6.94-.63-1.28-1.56-2.27-2.79-2.97-1.23-.69-3.46-1.01-6.69-.96v-2.85h21.59v47.25c0,6.58,1,10.9,2.99,12.95,2,2.06,4.41,3.08,7.23,3.08,1.93,0,4.11-.69,6.56-2.08s5.35-4.03,8.71-7.94v-40.01c0-4.01-.64-6.72-1.92-8.13-1.28-1.41-3.94-2.17-7.97-2.27v-2.85h20.99Z"/>
        <path class="cls-1" d="M1011.37,247.32l18.97-8.79h2.56v16.5c3.18-6.22,6.38-10.57,9.59-13.07,3.21-2.49,6.58-3.74,10.12-3.74,6.19,0,11.35,2.78,15.47,8.33,5.07,6.78,7.6,15.62,7.6,26.52,0,12.18-3.05,22.25-9.15,30.22-5.02,6.53-11.35,9.79-18.97,9.79-3.32,0-6.19-.54-8.61-1.62-1.79-.77-3.81-2.31-6.05-4.62v21.51c0,4.83.26,7.9.77,9.21.51,1.31,1.41,2.35,2.69,3.12,1.28.77,3.6,1.16,6.96,1.16v2.85h-32.29v-2.85h1.68c2.47.05,4.57-.49,6.32-1.62.85-.57,1.51-1.48,1.99-2.74.47-1.26.71-4.46.71-9.6v-66.76c0-4.57-.18-7.48-.54-8.71-.36-1.23-.93-2.16-1.72-2.77-.79-.62-1.85-.93-3.2-.93-1.08,0-2.45.36-4.1,1.08l-.81-2.47ZM1032.9,259.58v26.36c0,5.7.2,9.46.61,11.25.63,2.98,2.16,5.6,4.61,7.86,2.44,2.26,5.53,3.39,9.25,3.39,4.48,0,8.12-2,10.9-6.01,3.63-5.24,5.45-12.62,5.45-22.12,0-10.79-2.06-19.09-6.19-24.9-2.87-4.01-6.28-6.01-10.23-6.01-2.15,0-4.28.62-6.39,1.85-1.61.93-4.28,3.7-8.01,8.33Z"/>
        <path class="cls-1" d="M1072.16,227.11h14.22l.43,4.5h-.66c-.13-1.07-.47-1.87-1.03-2.38-.55-.51-1.47-.77-2.76-.77h-1.46v12.96c0,1.25.13,2.05.39,2.38.26.34.82.53,1.68.57v.81h-7.3v-.81c.85-.09,1.38-.29,1.61-.62.23-.32.34-1.09.34-2.32v-12.98h-1.48c-1.24,0-2.12.23-2.64.7-.52.47-.88,1.29-1.07,2.45h-.66l.41-4.5ZM1093.74,227.11l5.33,12.8,5.18-12.8h5.45v.83c-.73.01-1.21.1-1.46.25-.24.15-.42.39-.54.72s-.18,1.01-.18,2.06v10.47c0,1.27.12,2.06.37,2.37.25.31.85.5,1.8.56v.81h-7.77v-.81c.77-.01,1.29-.1,1.55-.27.27-.16.46-.4.59-.72.12-.31.19-.95.19-1.92v-11.01l-6,14.72h-.62l-6.01-14.52v10.79c0,1.01.05,1.67.17,1.98.11.31.29.54.53.71.24.16.61.25,1.12.25h.7v.81h-5.98v-.81c.73,0,1.22-.07,1.47-.22.25-.15.44-.38.56-.69s.18-.98.18-2.01v-10.43c0-1.13-.06-1.85-.17-2.15-.11-.3-.3-.53-.56-.68-.26-.16-.75-.23-1.48-.23v-.83h5.58Z"/>
      </g>
    </g>
  </g>
</svg>
